<svg viewBox="0 0 66 49" fill="none" xmlns="http://www.w3.org/2000/svg" xmlns:anim="http://www.w3.org/2000/anim" anim="" anim:transform-origin="50% 50%" anim:duration="1" anim:ease="ease-in-out">
    <g id="Badge" filter="url(#filter0_dd_113_3374)">
        <rect x="9.45715" y="5" width="46.6143" height="30.0304" rx="5.37857" fill="white"></rect>
        <rect x="9.3451" y="4.88795" width="46.8384" height="30.2545" rx="5.49062" stroke="#D6DCE5" stroke-width="0.224107"></rect>
        <g id="G Pay">
            <path d="M31.751 23.6142H30.7026V15.4559H33.482C34.1865 15.4559 34.7871 15.6907 35.2786 16.1604C35.781 16.63 36.0322 17.2033 36.0322 17.8805C36.0322 18.574 35.781 19.1473 35.2786 19.6115C34.7926 20.0757 34.1919 20.305 33.482 20.305H31.751V23.6142ZM31.751 16.4607V19.3057H33.5039C33.9189 19.3057 34.2684 19.1637 34.5414 18.8852C34.8199 18.6067 34.9619 18.2682 34.9619 17.8859C34.9619 17.5091 34.8199 17.176 34.5414 16.8975C34.2684 16.6081 33.9244 16.4662 33.5039 16.4662H31.751V16.4607Z" fill="#3C4043"></path>
            <path d="M38.7733 17.8477C39.5487 17.8477 40.1603 18.0552 40.6081 18.4702C41.0559 18.8852 41.2797 19.4531 41.2797 20.174V23.6142H40.2804V22.8388H40.2368C39.8054 23.4777 39.2265 23.7944 38.5057 23.7944C37.8887 23.7944 37.3754 23.6142 36.9604 23.2483C36.5454 22.8824 36.3379 22.4292 36.3379 21.8831C36.3379 21.3043 36.5563 20.8456 36.9931 20.5071C37.43 20.163 38.0143 19.9938 38.7405 19.9938C39.3631 19.9938 39.8764 20.1084 40.275 20.3378V20.0975C40.275 19.7316 40.133 19.4258 39.8436 19.1692C39.5542 18.9125 39.2156 18.7869 38.8279 18.7869C38.2436 18.7869 37.7795 19.0327 37.4409 19.5296L36.5181 18.9508C37.0259 18.2136 37.7795 17.8477 38.7733 17.8477ZM37.4191 21.8995C37.4191 22.1726 37.5337 22.4019 37.7685 22.5821C37.9979 22.7623 38.2709 22.8551 38.5822 22.8551C39.0245 22.8551 39.4177 22.6913 39.7617 22.3637C40.1057 22.036 40.2804 21.6538 40.2804 21.2115C39.9528 20.9548 39.4996 20.8238 38.9153 20.8238C38.4894 20.8238 38.1344 20.9275 37.8505 21.1296C37.561 21.3425 37.4191 21.5992 37.4191 21.8995Z" fill="#3C4043"></path>
            <path d="M46.9807 18.028L43.4859 26.0661H42.4047L43.7043 23.2538L41.3999 18.028H42.5412L44.2012 22.0361H44.2231L45.8394 18.028H46.9807Z" fill="#3C4043"></path>
            <path d="M27.5807 19.6443C27.5807 19.3024 27.5501 18.9753 27.4933 18.6608H23.0986V20.4628L25.6296 20.4634C25.5269 21.063 25.1965 21.5741 24.6903 21.9148V23.084H26.1969C27.0766 22.2698 27.5807 21.0662 27.5807 19.6443Z" fill="#4285F4"></path>
            <path d="M24.6909 21.9149C24.2715 22.1977 23.7314 22.3632 23.0996 22.3632C21.8792 22.3632 20.8438 21.5408 20.4731 20.4323H18.919V21.638C19.6889 23.1659 21.2714 24.2144 23.0996 24.2144C24.3632 24.2144 25.4248 23.7988 26.1975 23.0835L24.6909 21.9149Z" fill="#34A853"></path>
            <path d="M20.3267 19.5378C20.3267 19.2265 20.3785 18.9256 20.473 18.6428V17.4371H18.9189C18.6006 18.0689 18.4214 18.782 18.4214 19.5378C18.4214 20.2935 18.6011 21.0067 18.9189 21.6385L20.473 20.4328C20.3785 20.1499 20.3267 19.849 20.3267 19.5378Z" fill="#FABB05"></path>
            <path d="M23.0996 16.7119C23.7893 16.7119 24.4069 16.9494 24.8945 17.4136L26.2297 16.0795C25.4188 15.3243 24.3616 14.8607 23.0996 14.8607C21.272 14.8607 19.6889 15.9092 18.9189 17.4371L20.473 18.6428C20.8438 17.5343 21.8792 16.7119 23.0996 16.7119Z" fill="#E94235"></path>
        </g>
    </g>
    <defs>
        <filter id="filter0_dd_113_3374" x="0.268746" y="0.293736" width="64.9911" height="48.4072" filterUnits="userSpaceOnUse" color-interpolation-filters="sRGB">
            <feFlood flood-opacity="0" result="BackgroundImageFix"></feFlood>
            <feColorMatrix in="SourceAlpha" type="matrix" values="0 0 0 0 0 0 0 0 0 0 0 0 0 0 0 0 0 0 127 0" result="hardAlpha"></feColorMatrix>
            <feOffset dy="0.448214"></feOffset>
            <feGaussianBlur stdDeviation="2.24107"></feGaussianBlur>
            <feColorMatrix type="matrix" values="0 0 0 0 0.717647 0 0 0 0 0.717647 0 0 0 0 0.717647 0 0 0 0.08 0"></feColorMatrix>
            <feBlend mode="normal" in2="BackgroundImageFix" result="effect1_dropShadow_113_3374"></feBlend>
            <feColorMatrix in="SourceAlpha" type="matrix" values="0 0 0 0 0 0 0 0 0 0 0 0 0 0 0 0 0 0 127 0" result="hardAlpha"></feColorMatrix>
            <feOffset dy="4.48214"></feOffset>
            <feGaussianBlur stdDeviation="4.48214"></feGaussianBlur>
            <feColorMatrix type="matrix" values="0 0 0 0 0.717647 0 0 0 0 0.717647 0 0 0 0 0.717647 0 0 0 0.08 0"></feColorMatrix>
            <feBlend mode="normal" in2="effect1_dropShadow_113_3374" result="effect2_dropShadow_113_3374"></feBlend>
            <feBlend mode="normal" in="SourceGraphic" in2="effect2_dropShadow_113_3374" result="shape"></feBlend>
        </filter>
    </defs>
</svg>