<svg viewBox="0 0 197 33" fill="none" xmlns="http://www.w3.org/2000/svg" xmlns:anim="http://www.w3.org/2000/anim" anim="" anim:transform-origin="50% 50%" anim:duration="1" anim:ease="ease-in-out">
    <g id="Group">
        <path id="Vector" fill-rule="evenodd" clip-rule="evenodd" d="M16.552 29.4436C9.70313 29.4436 3.85715 23.2316 3.85715 16.4559C3.85715 9.70533 9.58077 3.36992 16.5029 3.36992C21.0531 3.36992 24.3296 5.57131 26.9964 9.02034H30.3471C29.3442 7.21007 28.268 5.54725 26.6293 4.25047C23.8161 1.97587 20.1715 0.630981 16.552 0.630981C7.86881 0.630981 0.800293 7.7978 0.800293 16.4319C0.800293 25.09 7.96711 32.1836 16.6012 32.1836C20.1234 32.1836 23.5724 30.8879 26.3365 28.7105C28.0735 27.3165 29.2961 25.5062 30.4705 23.6468H27.1198C24.477 27.0958 21.1023 29.4436 16.552 29.4436ZM51.2849 12.9337C49.1818 10.2188 46.3195 8.50685 42.7732 8.50685C36.4137 8.50685 31.1795 13.6689 31.1795 20.0284C31.1795 26.3868 36.4388 31.5969 42.7732 31.5969C46.4669 31.5969 49.0344 30.0554 51.2849 27.2182V31.0824H54.0489V9.04438H51.2849V12.9337ZM42.6268 29.0525C37.7586 29.0525 33.9185 24.8212 33.9185 20.0524C33.9185 15.3066 37.7346 11.0513 42.6268 11.0513C47.4939 11.0513 51.2849 15.3076 51.2849 20.0524C51.2849 24.8212 47.4688 29.0525 42.6268 29.0525ZM57.3997 31.0824H60.3603V1.26578H57.3997V31.0824ZM71.5377 27.5842L64.053 9.04438H61.1175L70.0945 31.0824H73.0782L82.0312 9.04438H79.1448L71.5377 27.5842ZM83.2538 31.0824H86.2134V9.04438H83.2538V31.0824ZM83.2538 6.20715H86.2134V1.26578H83.2538V6.20715ZM98.9574 8.5058C96.1683 8.5058 94.1875 9.97409 92.3532 11.9308V9.04438H89.6132V31.0824H92.5237V17.6534C92.4996 14.1071 95.4341 11.0502 99.0055 11.0502C103.48 11.0502 105.731 14.9395 105.731 18.9512V31.0834H108.47V18.9512C108.471 13.2276 105.121 8.5058 98.9574 8.5058ZM135.94 1.26578L122.487 18.3634V1.26578H119.576V31.0824H122.487V22.8886L126.303 18.1438L136.013 31.0824H139.708L128.161 15.795L139.708 1.26578H135.94ZM140.783 31.0824H143.67V1.26578H140.783V31.0824ZM167.567 14.5965C165.561 10.8536 161.549 8.5058 157.317 8.5058C151.008 8.5058 145.674 13.7651 145.674 20.0754C145.674 26.4338 151.056 31.5959 157.368 31.5959C160.375 31.5959 163.336 30.3974 165.512 28.3183C166.834 27.0707 167.616 25.5052 168.324 23.8664H165.219C163.652 26.9243 160.888 29.0514 157.316 29.0514C155.141 29.0514 153.012 28.1709 151.399 26.6785C149.734 25.1632 149.001 23.3027 148.682 21.1024H169.01C169.011 18.8037 168.692 16.6023 167.567 14.5965ZM148.781 18.559C149.664 14.426 152.915 11.0502 157.368 11.0502C161.11 11.0502 165.122 13.3499 166.002 18.559H148.781ZM171.163 31.0824H174.073V9.04438H171.163V31.0824ZM171.163 6.30546H174.073V1.26578H171.163V6.30546ZM186.867 8.5058C184.027 8.5058 182.047 9.97409 180.187 11.9308V9.04438H177.399V31.0824H180.335V17.6534C180.311 14.083 183.319 11.0502 186.914 11.0502C191.367 11.0502 193.716 14.9395 193.716 18.9512V31.0834H196.455V18.9512C196.455 13.2276 193.054 8.5058 186.867 8.5058Z" fill="white"></path>
    </g>
</svg>