<svg viewBox="0 0 148 35" fill="none" xmlns="http://www.w3.org/2000/svg" xmlns:anim="http://www.w3.org/2000/anim" anim="" anim:transform-origin="50% 50%" anim:duration="1" anim:ease="ease-in-out">
    <g id="gucci-logo-1 1" clip-path="url(#clip0_22_365)">
        <path id="Vector" d="M133.763 11.3702L133.487 11.4574C132.414 9.24011 130.882 7.47502 128.89 6.16215C126.929 4.84925 124.462 4.19281 121.489 4.19281C119.834 4.19281 118.256 4.52831 116.754 5.1993C115.253 5.8412 113.935 6.76022 112.801 7.95637C111.698 9.12336 110.809 10.5384 110.135 12.2014C109.461 13.8643 109.124 15.7024 109.124 17.7154C109.124 19.7285 109.461 21.5665 110.135 23.2295C110.809 24.8925 111.698 26.3221 112.801 27.5182C113.935 28.6852 115.253 29.5897 116.754 30.2316C118.256 30.8734 119.834 31.1943 121.489 31.1943C124.431 31.1943 126.821 30.7567 128.66 29.8814C130.53 28.977 132.108 27.6058 133.395 25.7678L133.671 25.855L133.579 28.6558C132.874 29.356 132.062 29.9833 131.143 30.5376C130.223 31.0627 129.227 31.5149 128.155 31.8942C127.113 32.2443 126.025 32.5069 124.891 32.682C123.757 32.8864 122.623 32.9886 121.49 32.9886C119.13 32.9886 116.877 32.6239 114.732 31.8945C112.587 31.1651 110.702 30.1439 109.078 28.8311C107.454 27.4891 106.167 25.8844 105.217 24.0172C104.267 22.1208 103.792 20.0202 103.792 17.7154C103.792 15.4106 104.267 13.3246 105.217 11.4574C106.167 9.56097 107.454 7.94175 109.078 6.59973C110.702 5.25766 112.587 4.23653 114.732 3.53633C116.877 2.80694 119.13 2.44224 121.49 2.44224C122.623 2.44224 123.757 2.52976 124.891 2.70481C126.025 2.87986 127.113 3.15703 128.155 3.53633C129.227 3.88643 130.223 4.33866 131.143 4.893C132.062 5.41815 132.874 6.03082 133.579 6.73102L133.763 11.3702ZM32.4666 19.7289C32.1297 19.8746 31.8079 20.0643 31.5013 20.2981C31.1947 20.5313 31.0413 20.8523 31.0413 21.2609V26.6437C29.5704 28.6568 27.6857 30.2176 25.3872 31.3263C23.0888 32.435 20.5453 32.9893 17.7565 32.9893C15.3968 32.9893 13.1444 32.6246 10.9992 31.8952C8.85402 31.1658 6.96932 30.1447 5.34509 28.8318C3.72089 27.4898 2.43377 25.8852 1.48374 24.018C0.533765 22.1216 0.0587769 20.021 0.0587769 17.7161C0.0587769 15.4113 0.533765 13.3253 1.48374 11.4581C2.43377 9.56169 3.72089 7.94247 5.34509 6.60045C6.96932 5.25838 8.85402 4.23726 10.9992 3.53709C13.1444 2.80767 15.3968 2.44295 17.7565 2.44295C18.8904 2.44295 20.0243 2.53048 21.1582 2.70553C22.292 2.88058 23.38 3.15775 24.422 3.53705C25.4945 3.88715 26.4905 4.33937 27.4098 4.89372C28.3292 5.41887 29.1413 6.03154 29.8462 6.73174L30.0304 11.3705L29.7546 11.4578C28.682 9.24043 27.1497 7.47532 25.1578 6.16245C23.1964 4.84956 20.7295 4.19311 17.7568 4.19311C16.102 4.19311 14.5238 4.52862 13.0222 5.19964C11.5205 5.84151 10.2028 6.76052 9.06885 7.95667C7.96559 9.12369 7.0769 10.5387 6.40275 12.2017C5.7285 13.8647 5.39138 15.7027 5.39138 17.7158C5.39138 19.6996 5.71317 21.5231 6.35674 23.1861C7.03097 24.849 7.91969 26.2786 9.02293 27.4749C10.1568 28.6418 11.4745 29.5608 12.9762 30.2319C14.4778 30.8737 16.0714 31.1946 17.7568 31.1946C20.944 31.1946 23.6715 30.6111 25.9392 29.4442V21.2605C25.9392 20.8523 25.7708 20.5313 25.4338 20.2977C25.1272 20.0645 24.8207 19.8748 24.5144 19.7285L24.5564 19.51C24.7095 19.5367 24.9853 19.5658 25.3839 19.5972C25.7825 19.6239 26.1962 19.653 26.625 19.6844H30.5785C30.9463 19.6578 31.2987 19.6287 31.6358 19.5972C31.9727 19.5705 32.2331 19.5415 32.417 19.51L32.4666 19.7289ZM65.7619 3.36166C65.4553 3.50736 65.1488 3.69709 64.8426 3.93084C64.536 4.16406 64.3675 4.60168 64.3372 5.24371C64.3092 5.9439 64.2787 6.83375 64.2456 7.91325C64.2456 8.96357 64.2316 10.1597 64.2036 11.5017C64.2036 12.8438 64.1895 14.3026 64.1615 15.878V20.7795C64.1335 22.6758 63.8882 24.295 63.4257 25.6371C62.966 26.9791 62.3531 28.1024 61.587 29.0068C60.8516 29.9112 60.0241 30.626 59.1048 31.1512C58.216 31.6763 57.3273 32.0702 56.4386 32.3328C55.5805 32.6247 54.7684 32.7998 54.0023 32.8579C53.2362 32.9455 52.6386 32.9892 52.2095 32.9892C50.4627 32.9892 48.7772 32.7704 47.153 32.3328C45.5288 31.9245 44.1038 31.2535 42.8779 30.3197C41.6521 29.3861 40.6715 28.1753 39.936 26.6874C39.2005 25.1995 38.8328 23.3906 38.8328 21.2608V16.3157V11.7643C38.8328 10.3639 38.8188 9.10935 38.7907 8.00073C38.7907 6.86289 38.7767 5.94387 38.7487 5.24367C38.7207 4.6018 38.5522 4.16417 38.2433 3.9308C37.9367 3.69758 37.6302 3.50785 37.324 3.36162L37.366 3.14308C37.5191 3.16976 37.7643 3.19883 38.1018 3.2303C38.4695 3.25698 38.8373 3.28606 39.205 3.31752C39.6036 3.31752 39.9867 3.33086 40.3543 3.35755H42.0091C42.3769 3.33086 42.7599 3.31752 43.1583 3.31752C43.5569 3.29084 43.9246 3.26176 44.2615 3.2303C44.6293 3.20362 44.8896 3.17454 45.0427 3.14308L45.0847 3.36162C44.7478 3.50732 44.426 3.69705 44.1194 3.9308C43.8436 4.16402 43.6903 4.60164 43.6594 5.24367C43.6314 5.94387 43.6009 6.86289 43.5678 8.00073V21.2608C43.5678 24.4409 44.3493 26.7895 45.9122 28.3066C47.4751 29.8237 49.7888 30.5822 52.8534 30.5822C53.7421 30.5822 54.7534 30.48 55.8873 30.2756C57.0212 30.0424 58.0785 29.5756 59.0591 28.8752C60.0704 28.175 60.9132 27.1831 61.5874 25.8994C62.2922 24.6157 62.6446 22.9089 62.6446 20.7792C62.6446 18.4743 62.6306 16.505 62.6026 14.8712C62.6026 13.2083 62.5886 11.7933 62.5606 10.6262C62.5606 9.43008 62.5465 8.40894 62.5185 7.56285C62.4905 6.7168 62.4599 5.94366 62.4268 5.24344C62.3988 4.60157 62.2303 4.16395 61.9215 3.93057C61.6148 3.69735 61.3084 3.50761 61.0021 3.36136L61.0442 3.14285C61.3811 3.201 61.7641 3.25944 62.1933 3.31816C62.6222 3.34485 63.0206 3.35819 63.3885 3.35819C63.7255 3.35819 64.1085 3.34485 64.5377 3.31816C64.9974 3.26002 65.3958 3.20158 65.7329 3.14285L65.7619 3.36166ZM99.118 11.3702L98.8422 11.4574C97.7696 9.24011 96.2373 7.47502 94.2454 6.16215C92.284 4.84925 89.8171 4.19281 86.8445 4.19281C85.1896 4.19281 83.6114 4.52831 82.1097 5.1993C80.6081 5.8412 79.2903 6.76022 78.1565 7.95637C77.0532 9.12336 76.1645 10.5384 75.4903 12.2014C74.8161 13.8644 74.479 15.7024 74.479 17.7154C74.479 19.7285 74.8161 21.5665 75.4903 23.2295C76.1646 24.8925 77.0533 26.3221 78.1565 27.5182C79.2904 28.6852 80.6081 29.5897 82.1098 30.2316C83.6114 30.8734 85.1897 31.1943 86.8445 31.1943C89.7865 31.1943 92.1768 30.7567 94.0156 29.8814C95.8849 28.977 97.4631 27.6058 98.7502 25.7678L99.026 25.855L98.9344 28.6558C98.2295 29.356 97.4174 29.9832 96.498 30.5375C95.5787 31.0627 94.5827 31.5149 93.5101 31.8942C92.4682 32.2443 91.3802 32.5069 90.2463 32.6819C89.1124 32.8863 87.9786 32.9885 86.8447 32.9885C84.485 32.9885 82.2326 32.6238 80.0874 31.8944C77.9422 31.165 76.0575 30.1439 74.4333 28.831C72.809 27.489 71.5219 25.8844 70.572 24.0172C69.622 22.1208 69.1469 20.0202 69.1469 17.7154C69.1469 15.4105 69.622 13.3245 70.572 11.4574C71.5219 9.56094 72.809 7.94172 74.4333 6.5997C76.0575 5.25763 77.9422 4.23649 80.0874 3.5363C82.2326 2.8069 84.485 2.4422 86.8447 2.4422C87.9786 2.4422 89.1125 2.52972 90.2464 2.70477C91.3803 2.87982 92.4682 3.157 93.5101 3.5363C94.5827 3.88639 95.5787 4.33862 96.498 4.89297C97.4174 5.41811 98.2295 6.03079 98.9343 6.73098L99.118 11.3702ZM147.618 32.245C147.465 32.2183 147.204 32.1892 146.836 32.1578C146.499 32.1578 146.132 32.1444 145.733 32.1177C145.335 32.1177 144.952 32.1044 144.584 32.0777H141.826C141.458 32.1044 141.091 32.1334 140.723 32.1649C140.386 32.1916 140.126 32.2207 139.942 32.2521L139.9 32.0768C140.206 31.9311 140.513 31.7414 140.819 31.5076C141.126 31.2744 141.294 30.8368 141.324 30.1947C141.352 29.4945 141.366 28.7652 141.366 28.0066C141.394 27.248 141.408 26.3874 141.408 25.4246V22.1424V17.7224V13.3024V9.97642C141.408 9.01365 141.394 8.16756 141.366 7.43817C141.366 6.67962 141.352 5.95025 141.324 5.25005C141.296 4.60818 141.128 4.17055 140.819 3.93718C140.512 3.67461 140.206 3.47046 139.9 3.32473L139.942 3.14946C140.126 3.20761 140.386 3.25137 140.723 3.28074C141.091 3.28074 141.458 3.29409 141.826 3.32077C142.225 3.34745 142.608 3.36079 142.975 3.36079H144.584C144.952 3.33411 145.335 3.32077 145.733 3.32077C146.132 3.29409 146.499 3.26501 146.836 3.23355C147.204 3.20686 147.465 3.17779 147.618 3.14632L147.66 3.32168C147.323 3.46737 147.001 3.67151 146.694 3.93408C146.419 4.16731 146.265 4.60493 146.234 5.24695C146.206 5.94715 146.176 6.67652 146.143 7.43507V28.0035C146.171 28.7621 146.201 29.4914 146.234 30.1916C146.262 30.8335 146.416 31.2711 146.694 31.5045C147.001 31.7377 147.323 31.9275 147.66 32.0737L147.618 32.245Z" fill="white"></path>
    </g>
    <defs>
        <clipPath id="clip0_22_365">
            <rect width="147.601" height="34.0617" fill="white" transform="translate(0.0587769 0.684875)"></rect>
        </clipPath>
    </defs>
</svg>