<svg viewBox="0 0 185 31" fill="none" xmlns="http://www.w3.org/2000/svg" xmlns:anim="http://www.w3.org/2000/anim" anim="" anim:transform-origin="50% 50%" anim:duration="1" anim:ease="ease-in-out">
    <g id="prada-logo-1 1" clip-path="url(#clip0_22_367)">
        <g id="Group">
            <path id="Vector" fill-rule="evenodd" clip-rule="evenodd" d="M0.952515 1.43034L3.72681 4.55903V27.4581L1.67063 30.4543L14.2635 30.4737L11.9937 27.7167L11.758 19.4699L23.9002 19.5358C27.5807 18.3105 31.364 15.6981 31.5458 10.4168C31.4878 5.29877 28.363 2.01612 24.7352 1.36302L0.952515 1.43034ZM11.3081 2.89478V17.6059L20.6242 17.6732C22.7439 15.9638 24.3509 14.6548 24.2866 10.5507C24.2562 7.20435 23.5498 4.28619 20.4313 2.8955L11.3081 2.89478ZM37.3736 1.26348L40.1479 4.39289V27.292L38.0917 30.2896L50.6839 30.3075L48.4141 27.5505L48.1785 19.3038H48.2289L61.2385 30.4006L72.0351 30.3126L62.1813 21.7894H53.9551L51.0557 19.3195L60.3207 19.3697C64.0011 18.1444 67.7838 15.532 67.9662 10.2507C67.9089 5.13335 64.7841 1.84998 61.1556 1.1976L37.3736 1.26348ZM47.7285 2.72793V17.439L57.0446 17.5063C59.1651 15.797 60.7713 14.4879 60.707 10.3832C60.6766 7.03749 59.9703 4.11862 56.8518 2.72793H47.7285ZM82.4293 1.23054H93.2874L107.422 27.4581C108.033 29.4833 109.863 29.2334 111.084 30.1214H97.3991L99.4553 29.4783L99.3267 27.5254L95.7928 21.8667L83.7785 21.934L81.2088 27.393C81.1231 28.0138 80.4589 28.485 80.9517 29.2563L81.9158 30.188L76.0051 30.0548L78.5755 29.2563L88.2758 8.81989V7.42133L84.1773 1.95381L82.4293 1.23054ZM84.5381 20.0657L89.5282 10.618L94.7236 20.0127L84.5381 20.0657ZM155.853 1.28783H166.71L180.845 27.5154C181.457 29.5406 183.286 29.2907 184.507 30.1786H170.822L172.878 29.5341L172.75 27.5813L169.216 21.924L157.202 21.9913L154.632 27.4488C154.546 28.0711 153.882 28.5423 154.374 29.3136L155.339 30.2452L149.429 30.112L151.999 29.3136L161.699 8.87718V7.4779L157.601 2.0111L155.853 1.28783ZM157.962 20.1237L162.952 10.6761L168.148 20.0693L157.962 20.1237ZM114.839 0.957703L134.182 1.0644C140.41 2.52312 144.373 6.32854 145.602 12.9669L145.55 18.1444C144.415 24.0595 140.694 28.1406 134.131 30.2066L114.736 30.261L114.733 29.6344C117.682 29.4117 117.917 29.0751 117.925 27.3249V3.73264C117.892 2.43862 117.633 1.633 114.787 1.5442L114.839 0.957703ZM125.834 2.97642L125.815 28.5015C128.366 28.5101 130.579 28.7493 131.83 28.1112C134.663 26.8172 135.979 24.83 136.099 22.9631L136.031 7.8911C136.032 5.47995 133.415 3.77775 131.904 3.33448C130.824 2.93417 128.668 2.9177 125.834 2.97642Z" fill="white" stroke="white" stroke-width="1.02419" stroke-miterlimit="2.613"></path>
        </g>
    </g>
    <defs>
        <clipPath id="clip0_22_367">
            <rect width="183.555" height="30.2771" fill="white" transform="translate(0.952515 0.577148)"></rect>
        </clipPath>
    </defs>
</svg>