<svg viewBox="0 0 159 32" fill="none" xmlns="http://www.w3.org/2000/svg" xmlns:anim="http://www.w3.org/2000/anim" anim="" anim:transform-origin="50% 50%" anim:duration="1" anim:ease="ease-in-out">
    <g id="Group">
        <path id="Vector" fill-rule="evenodd" clip-rule="evenodd" d="M142.948 1.25134H158.373V3.70918C157.925 3.55874 157.455 3.48119 156.983 3.47949H148.116V14.9645H156.741C157.362 14.9645 157.913 14.8964 158.372 14.7806V17.2277C157.981 17.1361 157.442 17.0896 156.776 17.0896H148.116V28.9652H156.718C157.19 28.9652 157.752 28.8965 158.372 28.747V31.3887H142.97C143.093 30.9241 143.155 30.4454 143.155 29.9648V2.70961C143.155 2.11283 143.085 1.6191 142.948 1.25134ZM139.377 9.07279L134.92 9.03911C134.702 6.53479 133.267 4.11063 130.108 3.66405C123.343 3.05515 121.436 10.4853 121.609 15.9182C121.782 21.1552 122.619 29.2064 129.602 29.2064C132.532 29.2064 135.345 26.1969 135.253 23.6589L139.377 23.6252C139.078 28.8622 133.071 31.8939 130.211 31.9976C120.438 32.331 116.348 25.8183 116.142 16.5258C115.959 8.10892 119.404 0.630981 129.063 0.630981C137.332 0.746161 138.929 5.63895 139.377 9.07279ZM69.8679 27.9657L72.8202 25.4964C74.3586 28.035 75.6222 29.1942 78.6775 29.1942C81.7779 29.1942 84.386 27.311 84.386 23.9808C84.386 22.338 83.7191 20.9942 82.3989 19.9839C81.8008 19.5124 80.2853 18.6974 77.8962 17.5604C74.3242 15.8495 70.8446 13.6207 70.8446 9.14217C70.8446 3.49094 75.6451 0.998749 80.7096 0.814192C83.7077 0.699685 87.4291 2.35464 88.9332 4.21436L85.9359 6.52267C85.4013 5.52504 84.6065 4.69079 83.6359 4.1085C82.6654 3.52621 81.5552 3.2176 80.4234 3.21546C76.5982 3.21546 73.5665 7.64887 76.7363 10.7042C77.5398 11.4848 79.1833 12.4494 81.687 13.5978C85.6833 15.4703 89.0942 17.7093 89.0942 22.66C89.0942 24.3708 88.6463 25.9672 87.7619 27.4261C85.9823 30.3662 83.0072 31.8366 78.8499 31.8366C74.0716 31.8366 73.1307 30.7455 69.8679 27.9657ZM27.8097 1.25134H43.2216V3.70918C42.7739 3.5588 42.305 3.48125 41.8327 3.47949H32.9666V14.9645H41.5916C42.2119 14.9645 42.7636 14.8964 43.2223 14.7806V17.2277C42.8316 17.1361 42.2921 17.0896 41.6381 17.0896H32.9666V28.9652H41.5687C42.0395 28.9652 42.6026 28.8965 43.2223 28.747V31.3887H27.8333C27.9458 30.9224 28.0035 30.4445 28.0051 29.9648V2.70961C28.0051 2.11283 27.9357 1.6191 27.8097 1.25134ZM0.854279 1.25134H6.45903V1.5275C6.45903 1.78009 6.53918 2.11283 6.67726 2.53785L14.5782 26.3235L22.6873 2.43412C22.8132 2.03267 22.8826 1.642 22.8826 1.25134H25.6045C25.329 1.73361 25.1222 2.1593 24.9956 2.53785L15.7381 30.1601C15.6465 30.4242 15.5663 30.8377 15.4976 31.3894H10.9032C10.8338 30.9718 10.7302 30.5607 10.5934 30.1601L1.52044 2.75608C1.31085 2.25068 1.09236 1.74902 0.865056 1.25134H0.854279ZM60.3814 16.9636C64.0564 16.2395 66.8705 13.4261 66.8705 9.40621C66.8705 4.13353 62.46 1.25066 57.5214 1.25066H48.4943C48.6203 1.71071 48.6896 2.19298 48.6896 2.69816V29.9406C48.6896 30.5266 48.6203 31.0203 48.4943 31.388H53.8694C53.7379 30.9168 53.6722 30.4297 53.674 29.9406V17.423L55.3963 17.6069L64.4012 31.388H69.8107L60.3814 16.9636ZM59.4512 14.6668C58.4752 15.3551 57.3032 15.6993 55.9594 15.6993H53.6626V3.44649H55.7183C57.4763 3.44649 58.8423 3.88229 59.819 4.75456C61.1513 5.96159 61.8289 7.59229 61.8289 9.63657C61.8289 11.8418 61.0361 13.519 59.4512 14.6674M115.246 30.1372L105.209 2.25091C105.097 1.92848 105.031 1.59202 105.013 1.25134H100.671C100.671 1.60765 100.614 1.9862 100.475 2.36542L90.7485 30.1372C90.6212 30.538 90.4151 30.9523 90.1396 31.3887H92.9416C92.9308 30.9294 92.9881 30.5043 93.1147 30.1372L95.9962 21.9473H107.08L109.928 30.1379C110.078 30.5845 110.147 30.9981 110.147 31.3887H115.959C115.625 30.9179 115.384 30.4929 115.246 30.1372ZM96.7547 19.7306L101.441 6.12122L106.253 19.7306H96.7547Z" fill="white"></path>
    </g>
</svg>