<svg viewBox="0 0 87 37" fill="none" xmlns="http://www.w3.org/2000/svg" xmlns:anim="http://www.w3.org/2000/anim" anim="" anim:transform-origin="50% 50%" anim:duration="1" anim:ease="ease-in-out">
    <g id="zara-logo-1 1" clip-path="url(#clip0_22_363)">
        <path id="Vector" d="M82.3496 35.6219L69.5932 0.769224L69.5845 0.746155H69.3328L66.7059 7.90826L61.9236 20.9471L61.9125 20.9367C60.255 19.4854 57.9166 18.5782 54.9716 18.2404L54.0734 18.1483L54.9645 18.0349C59.8211 17.1689 63.0857 14.1251 63.0857 10.4579C63.0857 5.42915 58.3194 1.9191 51.4921 1.9191H37.2867V2.17372H41.4143V28.1584L31.3897 0.769139L31.3807 0.746155H31.1289L28.502 7.90826L18.3702 35.5322L18.3079 35.5394C18.1347 35.5606 17.9635 35.5774 17.794 35.5901C17.5392 35.61 17.2858 35.6218 17.0316 35.6218H6.79427L26.2541 2.17364L26.3988 1.92227H2.59859V12.2693H2.85112C2.89589 7.22942 5.85362 2.17364 12.3885 2.17364H20.2723L0.665375 35.8725H27.0796V25.9593H26.8271C26.7927 30.352 24.2833 34.5243 18.8266 35.4664L18.6531 35.4958L22.8089 24.1606H34.4504L38.6452 35.6219H34.5072V35.8725H50.7487V35.6219H46.593V18.3331H51.3881C56.2679 18.3331 59.0666 20.4965 59.0666 24.2668V27.3335C59.0666 27.6715 59.0897 28.1655 59.1153 28.5787V28.5937L56.538 35.6203H53.171V35.8709H60.1406V35.6203H56.8098L59.1569 29.2219C59.1617 29.2837 59.1641 29.321 59.1641 29.321L59.2289 29.8976L59.2912 30.279C59.6828 32.6384 60.5922 34.3728 61.9932 35.4339L62.1946 35.579C63.2591 36.3134 64.5817 36.6853 66.1281 36.6853C68.1764 36.6853 69.5422 36.1786 70.6698 34.9859L70.522 34.8478C69.483 35.7995 68.6112 36.185 67.5187 36.185C65.6574 36.185 64.6833 33.9445 64.6833 31.7351V27.4382C64.6932 26.372 64.5249 25.3116 64.1853 24.3001L64.139 24.1669V24.1621H72.654L76.8488 35.6235H72.7108V35.8741H86.7659V35.6235L82.3496 35.6219ZM22.9015 23.91L28.6364 8.27472L34.3585 23.91H22.9015ZM46.5955 18.0817V2.17364H50.2556C55.145 2.17364 57.7263 5.05799 57.7263 10.5119C57.7263 16.3123 56.2446 18.0817 51.3881 18.0817H46.5955ZM64.0398 23.91L64.015 23.8481C63.6366 22.9335 63.0857 22.0991 62.3919 21.3896L62.1522 21.1516L62.1266 21.1279L66.8369 8.27472L72.559 23.91H64.0398Z" fill="white"></path>
    </g>
    <defs>
        <clipPath id="clip0_22_363">
            <rect width="86.1005" height="35.9541" fill="white" transform="translate(0.665375 0.738708)"></rect>
        </clipPath>
    </defs>
</svg>